# xmcd CD database file
# Generated: Don Jul 18 21:31:14 2002 by KSCD
# 
# Track frame offsets:
#       150
#       16537
#       30020
#       43285
#       52873
#       76320
#       94737
#       105837
#       119773
#       134380
#       150739
#       166568
#       182744
#       203970
#       225303
#       239379
#       258072
#       282512
#       296869
#       314765
#
# Disc length: 4384 seconds
#
# Revision: 9
# Processed by: cddbd v1.4PL0 Copyright (c) Steve Scherf et al.
# Submitted via: Kscd 1.3.3
#
DISCID=02111e14
DTITLE=John Denver - Gold Collection
DYEAR=1900
DGENRE=
TTITLE0=Leaving, On A Jet Plane
TTITLE1=Annie's Song
TTITLE2=Perhaps Love
TTITLE3=The Eagle And The Hawk
TTITLE4=Sunshine On My Shoulders
TTITLE5=Poems, Prayers And Promises
TTITLE6=Follow Me
TTITLE7=Starwood In Aspen
TTITLE8=Rhymes and Reasons
TTITLE9=Goodbye Again
TTITLE10=I'm Sorry
TTITLE11=Calypso
TTITLE12=Rocky Mountain High
TTITLE13=Back Home Again
TTITLE14=Thank God I'm A Country Boy
TTITLE15=Fly Away
TTITLE16=Sweet Surrender
TTITLE17=Shanghai Breezes
TTITLE18=Some Days Are Diamonds (Some Days Are Stone)
TTITLE19=Take Me Home Country Roads
EXTD=
EXTT0=
EXTT1=
EXTT2=
EXTT3=
EXTT4=
EXTT5=
EXTT6=
EXTT7=
EXTT8=
EXTT9=
EXTT10=
EXTT11=
EXTT12=
EXTT13=
EXTT14=
EXTT15=
EXTT16=
EXTT17=
EXTT18=
EXTT19=
PLAYORDER=
